<svg width="16" height="16" viewBox="0 0 16 16" fill="none" xmlns="http://www.w3.org/2000/svg">
<path d="M10.8819 13.1898C10.9428 13.2628 10.9815 13.3516 10.9937 13.4459C11.0058 13.5402 10.9908 13.6359 10.9505 13.722C10.9101 13.808 10.8461 13.8808 10.7659 13.9318C10.6857 13.9827 10.5926 14.0098 10.4976 14.0098H5.49756C5.40252 14.0098 5.30944 13.9827 5.22922 13.9318C5.14901 13.8808 5.08498 13.808 5.04464 13.722C5.0043 13.6359 4.98933 13.5402 5.00147 13.4459C5.01361 13.3516 5.05236 13.2628 5.11318 13.1898L7.61318 10.1898C7.66011 10.1335 7.71883 10.0882 7.7852 10.0571C7.85157 10.026 7.92396 10.0099 7.99725 10.0099C8.07053 10.0099 8.14292 10.026 8.20929 10.0571C8.27566 10.0882 8.33438 10.1335 8.38131 10.1898L10.8819 13.1898ZM12.9976 2.50977H2.99756C2.59973 2.50977 2.2182 2.6678 1.9369 2.94911C1.65559 3.23041 1.49756 3.61194 1.49756 4.00977V11.0098C1.49756 11.4076 1.65559 11.7891 1.9369 12.0704C2.2182 12.3517 2.59973 12.5098 2.99756 12.5098H4.26131C4.29793 12.5097 4.3341 12.5017 4.36725 12.4861C4.40041 12.4706 4.42975 12.4479 4.45318 12.4198L6.84568 9.54977C7.00374 9.35988 7.20624 9.21197 7.43521 9.11918C7.66418 9.0264 7.91253 8.9916 8.15818 9.01789C8.55649 9.06501 8.92079 9.26543 9.17381 9.57664L11.5432 12.4198C11.5666 12.4479 11.596 12.4706 11.6291 12.4861C11.6623 12.5017 11.6984 12.5097 11.7351 12.5098H12.9976C13.3954 12.5098 13.7769 12.3517 14.0582 12.0704C14.3395 11.7891 14.4976 11.4076 14.4976 11.0098V4.00977C14.4976 3.61194 14.3395 3.23041 14.0582 2.94911C13.7769 2.6678 13.3954 2.50977 12.9976 2.50977Z" fill="white"/>
</svg>
