<svg width="100" height="100" viewBox="0 0 100 100" fill="none" xmlns="http://www.w3.org/2000/svg">
<g clip-path="url(#clip0_3215_41027)">
<rect width="100" height="100" rx="8" fill="#F3F4F5"/>
<path d="M89.8882 74.0424C90.7959 73.4745 91.8212 73.1215 92.8861 73.0103C93.376 72.9601 93.9121 72.9742 94.3056 73.2714C94.351 73.2975 94.3885 73.3353 94.4143 73.3809C94.44 73.4264 94.4531 73.4781 94.4522 73.5304C94.4293 73.6043 94.38 73.6672 94.3137 73.7071C93.0929 74.6388 91.2456 74.7572 89.8963 74.0424" fill="#E0E0E0"/>
<path d="M89.9545 73.9583C90.6493 73.4482 91.2977 72.8778 91.8921 72.2535C92.4841 71.6242 92.8997 70.8499 93.0969 70.0087C93.1363 69.8837 93.148 69.7516 93.1314 69.6216C93.1148 69.4916 93.0701 69.3668 93.0005 69.2557C91.4564 70.4605 90.2436 72.0226 89.9445 73.9583" fill="#E0E0E0"/>
<path d="M89.9043 74.0326C90.0461 73.1893 90.0338 72.3274 89.8682 71.4885C89.6951 70.644 89.2114 69.8953 88.5128 69.3903C88.2458 70.0127 88.3602 70.7315 88.549 71.3841C88.8397 72.3934 89.2934 73.3484 89.8923 74.2113" fill="#E0E0E0"/>
<path d="M88.3903 76.7449C89.3079 76.8553 90.1091 77.3472 90.7998 77.9617C91.4846 78.5912 91.9603 79.4152 92.1632 80.323C91.2616 80.2668 90.4966 79.6323 89.9424 78.9174C89.3882 78.2026 89.0027 77.4235 88.3943 76.7549" fill="#E0E0E0"/>
<path d="M88.061 77.1788C88.4242 76.2588 88.5518 75.2626 88.4323 74.2808C88.3127 73.299 87.9497 72.3626 87.3763 71.5566C86.8523 73.418 87.045 75.5223 88.061 77.1788Z" fill="#E0E0E0"/>
<path d="M86.0611 79.56C86.8997 79.51 87.7345 79.7071 88.4622 80.1268C89.1899 80.5465 89.7786 81.1704 90.1553 81.9213C90.2055 82.0217 90.2496 82.1522 90.1814 82.2425C90.146 82.2768 90.1029 82.302 90.0557 82.316C90.0085 82.33 89.9586 82.3323 89.9103 82.3229C89.1071 82.2706 88.3843 81.7827 87.794 81.2305C87.2036 80.6784 86.6876 80.0358 86.035 79.558" fill="#E0E0E0"/>
<path d="M86.1254 79.4293C86.5555 78.043 86.5813 76.5628 86.1997 75.1624C86.0511 74.6123 85.7981 74.034 85.2901 73.777C85.2699 73.7636 85.2472 73.7545 85.2234 73.7504C85.1995 73.7462 85.1751 73.7471 85.1516 73.7529C85.1098 73.7741 85.0781 73.8109 85.0632 73.8553C84.8919 74.239 84.8181 74.659 84.8484 75.0781C84.8811 75.4966 84.9482 75.9116 85.0492 76.319C85.2098 77.076 85.2941 77.8892 85.7098 78.5438C85.8083 78.7007 85.8968 78.8636 85.9748 79.0317C86.0531 79.1984 86.0531 79.2566 86.1254 79.3891" fill="#E0E0E0"/>
<path d="M80.8305 80.2186C81.2321 78.7267 80.8064 76.9176 79.8647 75.6947C79.7965 75.6044 79.7041 75.508 79.5917 75.5181C79.419 75.5341 79.3728 75.765 79.3909 75.9397C79.4622 77.4739 79.9647 78.9569 80.8406 80.2186" fill="#E0E0E0"/>
<path d="M80.3526 80.548C79.4267 80.7656 78.4647 80.78 77.5327 80.5904C76.6006 80.4008 75.7207 80.0117 74.9534 79.4497C75.8562 78.9953 76.8888 78.8682 77.8749 79.0903C78.8527 79.3132 79.7442 79.7509 80.3526 80.548Z" fill="#E0E0E0"/>
<path d="M79.949 79.5439C78.9451 77.8874 76.9874 76.8071 75.0497 76.7087C75.2726 77.4978 75.9212 78.1143 76.6561 78.4817C77.391 78.8492 78.2042 79.0138 79.0093 79.1704C79.3226 79.2307 79.7503 79.2969 79.9531 79.5439" fill="#E0E0E0"/>
<path d="M80.7181 74.7249C80.412 73.7917 80.202 72.8296 80.0917 71.8536C80.0174 70.8757 80.1559 69.8457 80.6639 69.0144C81.6117 70.8496 81.708 72.9941 80.7482 74.8233" fill="#E0E0E0"/>
<path d="M77.5356 73.1186C76.4272 71.1107 74.1643 69.4923 71.8753 69.2675C72.7588 71.4661 75.1662 73.1668 77.5356 73.1186Z" fill="#E0E0E0"/>
<path d="M78.2343 73.5203C76.5798 73.7712 75.1702 74.8274 73.6161 75.4679C73.293 75.625 72.9343 75.6943 72.576 75.6687C72.4093 75.6661 72.2474 75.6126 72.112 75.5154C71.9766 75.4182 71.8741 75.2819 71.8184 75.1248C71.7627 74.9676 71.7563 74.7972 71.8002 74.6364C71.8441 74.4756 71.9362 74.3321 72.064 74.225C72.2828 74.0229 72.5403 73.8672 72.821 73.7672C74.5056 73.0645 76.3107 73.0484 78.0837 73.4721" fill="#E0E0E0"/>
<path d="M79.1901 74.6727C78.8166 74.7792 78.6881 74.9739 78.3869 75.2249C77.3771 76.0847 76.182 76.6991 74.8952 77.02C74.7626 77.0541 74.586 77.0682 74.5197 76.9457C74.4534 76.8232 74.5358 76.7128 74.61 76.6204C75.1722 75.962 75.9011 75.4668 76.7204 75.1868C77.5235 74.8876 78.2263 74.5242 79.1881 74.6025" fill="#E0E0E0"/>
<path d="M80.2703 67.6653C79.5923 68.2905 78.7909 68.767 77.9178 69.064C77.0446 69.361 76.119 69.4721 75.2003 69.3901C75.1158 69.3922 75.0336 69.3629 74.9694 69.3078C74.8409 69.1693 74.9955 68.9544 75.1441 68.84C76.634 67.6774 78.4411 67.1955 80.2703 67.6653Z" fill="#E0E0E0"/>
<path d="M78.9913 67.1974C78.0934 66.5368 77.0519 66.0979 75.9521 65.9165C74.8522 65.735 73.725 65.8161 72.6624 66.1532C73.4897 66.9193 74.5504 67.3853 75.6743 67.4765C76.7864 67.5776 77.9077 67.4832 78.9873 67.1974" fill="#E0E0E0"/>
<path d="M79.4993 63.9766C79.6459 62.4887 79.5515 61.3141 79.6539 59.8202C79.6539 59.6997 79.6881 59.5572 79.8005 59.513C79.9551 59.4528 80.0856 59.6455 80.1358 59.8042C80.3526 60.497 80.4081 61.2302 80.2982 61.9478C80.1882 62.6654 79.9156 63.3483 79.5013 63.9445" fill="#E0E0E0"/>
<path d="M79.6057 64.1413C78.6337 63.5141 77.7962 62.6998 77.142 61.7458C76.6541 61.0792 76.2445 60.2821 76.3549 59.4648C76.6976 59.4742 77.0341 59.5579 77.3413 59.7101C77.6484 59.8623 77.9189 60.0794 78.1339 60.3463C78.5584 60.8857 78.8668 61.5072 79.0395 62.1715C79.2403 62.8261 79.3748 63.4987 79.6057 64.1413Z" fill="#E0E0E0"/>
<path d="M77.1842 63.4684C74.9653 62.6472 72.9111 61.4362 71.1183 59.8923C71.8431 59.5992 72.6724 59.7739 73.3972 60.067C75.0518 60.7357 76.4091 61.8621 77.2123 63.4524" fill="#E0E0E0"/>
<path d="M78.925 64.9565C77.8066 65.079 76.6682 65.1573 75.5578 64.9726C74.4474 64.7878 73.4334 64.3561 72.4134 63.9264C72.3237 63.9026 72.2467 63.8451 72.1985 63.7658C72.1826 63.7185 72.1813 63.6675 72.1949 63.6194C72.2086 63.5714 72.2364 63.5286 72.2748 63.4967C72.3531 63.4337 72.4454 63.3903 72.5439 63.3703C73.6523 63.061 74.851 63.2056 75.9413 63.571C76.9815 63.9266 77.9816 64.3903 78.925 64.9545" fill="#E0E0E0"/>
<path d="M85.3203 67.7173C86.0833 66.1732 86.0351 64.3741 85.3745 62.7859C84.9106 63.4927 84.8524 64.3922 84.9388 65.2375C85.0251 66.0829 85.2801 66.9463 85.2962 67.7936" fill="#E0E0E0"/>
<path d="M88.3722 66.1773C89.3285 66.1651 90.2768 66.3523 91.1567 66.7271C92.0365 67.1019 92.8286 67.6559 93.4824 68.3539C92.5306 68.5045 91.5507 68.2575 90.6833 67.8359C89.8318 67.383 89.0286 66.8448 88.2859 66.2295" fill="#E0E0E0"/>
<path d="M90.4244 65.4889C91.358 65.4126 92.2556 65.2981 93.1531 65.5732C93.6058 65.7006 94.0257 65.924 94.3843 66.2283C94.7429 66.5325 95.0318 66.9103 95.2313 67.3362C94.3506 67.4071 93.4671 67.24 92.6732 66.8523C91.8842 66.4663 91.1315 66.01 90.4244 65.4889Z" fill="#E0E0E0"/>
<path d="M87.3864 65.5225C88.2257 64.9724 89.0871 64.4121 90.0649 64.1832C91.0428 63.9543 92.1752 64.125 92.8559 64.8619C92.0648 65.3257 91.105 65.38 90.1874 65.38C89.2698 65.38 88.1454 65.3679 87.28 65.6751" fill="#E0E0E0"/>
<path d="M87.3803 65.5669C88.816 64.1614 89.3601 61.6254 88.7859 59.6998C87.6524 61.4339 87.1556 63.5075 87.3803 65.5669Z" fill="#E0E0E0"/>
<path d="M83.4348 61.5733C83.1637 60.9448 82.973 60.2842 82.73 59.6437C82.5084 58.991 82.1665 58.3856 81.7221 57.8586C81.2741 57.3296 80.6356 56.9984 79.9451 56.937C80.1659 57.9078 80.5867 58.8219 81.1806 59.6208C81.7746 60.4198 82.5287 61.0862 83.3947 61.5773" fill="#E0E0E0"/>
<path d="M84.1477 62.4067C84.5974 61.7882 85.1135 60.9529 85.7219 60.4931C86.3303 60.0333 87.1274 59.7542 87.8603 59.9309C87.4763 60.6036 86.9409 61.1776 86.2964 61.6073C85.652 62.0371 84.9163 62.3107 84.1477 62.4067Z" fill="#E0E0E0"/>
<path d="M84.0051 61.6253C84.3277 60.8904 84.5655 60.1211 84.7139 59.3323C84.8611 58.5369 84.7344 57.7152 84.3544 57.0011C83.5673 58.489 83.3123 60.0873 83.9649 61.6414" fill="#E0E0E0"/>
<path d="M83.4268 57.0011C82.981 55.5233 81.6297 54.437 80.17 53.9391C79.9891 53.8642 79.7926 53.8346 79.5977 53.8527C79.501 53.8637 79.4096 53.9028 79.335 53.9653C79.2604 54.0278 79.2058 54.1108 79.178 54.2041C79.1238 54.4551 79.3327 54.68 79.5274 54.8466C80.668 55.8213 81.9946 56.5543 83.4268 57.0011Z" fill="#E0E0E0"/>
<path d="M83.4107 55.7924C83.3545 54.8406 83.2943 53.8748 82.985 52.9813C82.6758 52.0878 82.0795 51.2324 81.21 50.8308C81.0635 51.7926 81.4871 52.7484 81.9992 53.5756C82.5112 54.4029 83.1276 55.182 83.4348 56.1076" fill="#E0E0E0"/>
<path d="M83.4348 56.453C83.8022 55.3768 83.8364 54.0094 84.4849 53.0717C84.9367 52.4171 85.6576 51.9713 86.0451 51.2766C86.2787 51.9422 86.2464 52.6723 85.9547 53.3146C85.6626 53.9504 85.2586 54.5285 84.762 55.0214C84.2862 55.5314 83.8785 55.9129 83.4348 56.453Z" fill="#E0E0E0"/>
<path d="M83.4267 88.1338C83.4549 88.1338 83.481 80.9555 83.483 72.1047C83.485 63.2538 83.4629 56.0735 83.4348 56.0735C83.4067 56.0735 83.3806 63.2498 83.3786 72.1047C83.3765 80.9596 83.3986 88.1338 83.4267 88.1338Z" fill="#E0E0E0"/>
<path d="M77.1561 66.6331C77.2419 66.6766 77.3321 66.7109 77.4251 66.7355L78.1681 66.9844C78.7945 67.1993 79.6539 67.5065 80.5775 67.89C81.5012 68.2735 82.3847 68.6088 82.8706 69.0385C83.0675 69.2019 83.2247 69.4079 83.3304 69.6409C83.4027 69.8096 83.4147 69.912 83.4248 69.91C83.4348 69.908 83.4248 69.8839 83.4248 69.8357C83.4145 69.7638 83.397 69.6932 83.3726 69.6248C83.2789 69.3779 83.1258 69.1579 82.9268 68.9843C82.6245 68.7297 82.2862 68.5213 81.9228 68.3659C81.5213 68.1812 81.0835 67.9864 80.6157 67.7936C79.678 67.4101 78.8086 67.1109 78.1781 66.9162C77.8608 66.8178 77.6038 66.7435 77.4251 66.6953C77.3373 66.6674 77.2473 66.6466 77.1561 66.6331Z" fill="#E0E0E0"/>
<path d="M75.0959 61.5833C75.0959 61.5833 75.118 61.6134 75.1702 61.6636L75.4051 61.8744L76.2645 62.6555L79.1258 65.2035C80.2442 66.1974 81.21 67.1492 81.8787 67.864C82.214 68.2214 82.481 68.5166 82.6577 68.7234C82.7401 68.8198 82.8103 68.8981 82.8585 68.9603C82.9067 69.0226 82.9328 69.0426 82.9368 69.0386C82.9195 69.0063 82.8986 68.976 82.8746 68.9483C82.8324 68.89 82.7682 68.8037 82.6738 68.6973C82.5031 68.4824 82.2461 68.1792 81.9188 67.8138C81.0542 66.871 80.1407 65.9742 79.182 65.1272C78.0616 64.1233 77.0416 63.2438 76.2987 62.6013L75.4172 61.8443L75.1742 61.6435C75.1501 61.6209 75.1239 61.6008 75.0959 61.5833Z" fill="#E0E0E0"/>
<path d="M80.3325 66.2215C80.3627 66.2075 80.1318 65.6694 79.8968 64.9867C79.6619 64.304 79.5515 63.7317 79.5214 63.7357C79.5445 64.1761 79.6381 64.61 79.7984 65.0208C79.8978 65.315 80.0138 65.6032 80.1458 65.8842C80.1913 66.0051 80.2542 66.1188 80.3325 66.2215Z" fill="#E0E0E0"/>
<path d="M83.4208 70.5647C83.485 70.5038 83.5429 70.4365 83.5934 70.3639L84.0332 69.7977C84.4046 69.3198 84.9166 68.6572 85.4909 67.9343C86.0652 67.2115 86.5912 66.5629 86.9748 66.0931L87.4245 65.5349C87.4833 65.469 87.5357 65.3977 87.5811 65.322C87.5126 65.3776 87.45 65.4402 87.3944 65.5088C87.28 65.6332 87.1173 65.818 86.9185 66.0469C86.517 66.5047 85.9849 67.1452 85.4086 67.8701C84.8323 68.5949 84.3303 69.2635 83.9749 69.7535C83.7962 69.9984 83.6557 70.1992 83.5593 70.3398C83.5058 70.41 83.4594 70.4853 83.4208 70.5647Z" fill="#E0E0E0"/>
<path d="M84.7961 68.7997C85.0728 68.4923 85.2706 68.1223 85.3724 67.7214C85.4802 67.3693 85.5244 67.0008 85.5029 66.6332H85.4567C85.4768 66.7155 85.4929 66.7596 85.5009 66.7596C85.509 66.7596 85.5009 66.7115 85.5009 66.6251H85.4547C85.4324 66.9836 85.3705 67.3385 85.27 67.6833C85.1402 68.0667 84.9818 68.4399 84.7961 68.7997Z" fill="#E0E0E0"/>
<path d="M86.5712 66.5668C86.6951 66.4726 86.8299 66.3938 86.9728 66.3319C87.3352 66.2241 87.7163 66.194 88.0912 66.2436C88.4703 66.2734 88.8463 66.3338 89.2156 66.4243C89.367 66.4715 89.5213 66.5091 89.6774 66.5367C89.5401 66.4541 89.3912 66.3925 89.2357 66.354C88.8655 66.2403 88.4835 66.1689 88.0972 66.1412C87.7094 66.0879 87.3145 66.13 86.9467 66.2636C86.7901 66.3181 86.6574 66.4253 86.5712 66.5668Z" fill="#E0E0E0"/>
<path d="M86.9928 66.0247C86.9928 66.0407 87.2258 65.9303 87.6093 65.7998C88.1083 65.632 88.6263 65.5274 89.1514 65.4886C89.6753 65.4505 90.202 65.4768 90.7195 65.5669C91.1211 65.6392 91.3581 65.7135 91.3641 65.6954C91.3126 65.6652 91.2572 65.6422 91.1994 65.6271C91.0473 65.5731 90.8917 65.5294 90.7336 65.4966C89.6848 65.2652 88.591 65.3483 87.5892 65.7355C87.4387 65.7936 87.2919 65.8606 87.1495 65.9363C87.0933 65.9581 87.0405 65.9879 86.9928 66.0247Z" fill="#E0E0E0"/>
<path d="M83.4348 63.7357C83.6181 63.2258 83.7683 62.7047 83.8846 62.1755C84.0339 61.654 84.1499 61.1235 84.2319 60.5873C84.0504 61.0982 83.9009 61.6199 83.7842 62.1494C83.634 62.6702 83.5173 63.2 83.4348 63.7357Z" fill="#E0E0E0"/>
<path d="M83.4067 63.7357C83.5496 63.4127 83.716 63.1006 83.9047 62.802C84.1146 62.5186 84.3611 62.2641 84.6375 62.045C84.5326 62.07 84.4354 62.1203 84.3544 62.1916C84.1457 62.3431 83.9644 62.5292 83.8183 62.7418C83.5957 63.0309 83.4536 63.3738 83.4067 63.7357Z" fill="#E0E0E0"/>
<path d="M83.4268 84.3065C83.4388 84.3065 83.4589 84.1339 83.5412 83.8287C83.6589 83.3995 83.819 82.9832 84.0191 82.5858C84.5151 81.5818 85.4246 80.2887 86.5651 79.0016C87.1334 78.3531 87.6835 77.7407 88.1514 77.1544C88.5704 76.6419 88.9497 76.0982 89.2859 75.528C89.511 75.1398 89.7031 74.7335 89.8601 74.3132C89.9123 74.1626 89.9505 74.0461 89.9726 73.9658C89.9855 73.9251 89.9956 73.8835 90.0027 73.8413C89.9926 73.8413 89.9404 74.006 89.822 74.2971C89.6512 74.7091 89.4499 75.1078 89.2196 75.4898C88.8762 76.0519 88.4931 76.5887 88.0731 77.0961C87.6032 77.6764 87.0511 78.2848 86.4828 78.9354C85.3323 80.2265 84.4327 81.5276 83.9508 82.5496C83.7543 82.953 83.6022 83.3764 83.497 83.8126C83.4691 83.9318 83.4476 84.0525 83.4328 84.174C83.4254 84.2178 83.4234 84.2623 83.4268 84.3065Z" fill="#E0E0E0"/>
<path d="M77.7605 77.9056C77.855 77.9678 77.9536 78.0235 78.0556 78.0723C78.3246 78.2227 78.5823 78.3925 78.8267 78.5803C79.1839 78.8627 79.5194 79.1714 79.8306 79.5039C80.186 79.8794 80.5515 80.3071 80.9249 80.7809C81.6719 81.7186 82.3706 82.5479 82.7883 83.2085C83.0011 83.5378 83.1537 83.8109 83.2561 84.0117C83.3034 84.115 83.3577 84.215 83.4188 84.3108C83.4188 84.3108 83.4188 84.2807 83.3907 84.2265C83.3625 84.1723 83.3405 84.094 83.2923 83.9936C83.1617 83.7118 83.0142 83.4382 82.8505 83.1744C82.4489 82.4957 81.7522 81.6564 81.0053 80.7207C80.6318 80.2528 80.2623 79.8171 79.8989 79.4416C79.5799 79.1079 79.2333 78.8016 78.8628 78.526C78.6097 78.3411 78.341 78.1785 78.0596 78.0401C77.9613 77.9899 77.8809 77.9598 77.8267 77.9377C77.7725 77.9156 77.7605 77.9016 77.7605 77.9056Z" fill="#E0E0E0"/>
<path d="M77.648 79.9816C77.8549 80.0277 78.065 80.0586 78.2765 80.074C78.7812 80.125 79.28 80.2231 79.7663 80.3671C80.2466 80.524 80.6973 80.7602 81.0996 81.0659C81.4068 81.3028 81.5514 81.4996 81.5654 81.4875C81.5417 81.4352 81.5106 81.3865 81.4731 81.343C81.3743 81.2222 81.2647 81.1106 81.1458 81.0097C80.748 80.6775 80.2899 80.4252 79.7965 80.2667C79.3043 80.1204 78.797 80.0308 78.2845 79.9997C78.0733 79.974 77.8603 79.9679 77.648 79.9816Z" fill="#E0E0E0"/>
<path d="M81.3827 81.2607C81.4149 81.2427 81.1318 80.809 80.9129 80.2287C80.694 79.6484 80.6579 79.1283 80.6217 79.1323C80.6015 79.2439 80.6015 79.3581 80.6217 79.4697C80.6524 79.7401 80.7137 80.0062 80.8045 80.2628C80.8997 80.5178 81.0216 80.7621 81.1679 80.9917C81.2239 81.0928 81.2966 81.1837 81.3827 81.2607Z" fill="#E0E0E0"/>
<path d="M75.9232 72.3295C75.9545 72.3513 75.9882 72.3695 76.0236 72.3837L76.3187 72.5162C76.4493 72.5724 76.6059 72.6427 76.7826 72.7351C76.9593 72.8274 77.1661 72.9218 77.3849 73.0503L77.7263 73.2511C77.8448 73.3194 77.9632 73.4017 78.0877 73.48C78.3407 73.6326 78.5937 73.8213 78.8628 74.0141C80.0189 74.8762 81.0279 75.9198 81.8505 77.1043C82.0333 77.3814 82.214 77.6404 82.3565 77.8974C82.4308 78.0259 82.5091 78.1464 82.5734 78.2669L82.7561 78.6162C82.8766 78.8351 82.9569 79.0459 83.0493 79.2186C83.1416 79.3913 83.2019 79.5559 83.2501 79.6885C83.2982 79.821 83.3424 79.9073 83.3745 79.9876C83.3874 80.0236 83.4042 80.0579 83.4247 80.09C83.4192 80.0521 83.4091 80.0151 83.3946 79.9796C83.3665 79.8993 83.3324 79.7969 83.2882 79.6724C83.2341 79.51 83.1718 79.3505 83.1015 79.1945C83.0212 79.0118 82.9368 78.7929 82.8184 78.5741L82.6417 78.2207C82.5774 78.0982 82.5031 77.9757 82.4288 77.8452C82.2883 77.5842 82.1096 77.3211 81.9268 77.042C81.1073 75.8408 80.0887 74.7883 78.915 73.9298C78.6399 73.729 78.3849 73.5503 78.1279 73.3997C78.0014 73.3214 77.8809 73.2411 77.7604 73.1748L77.4131 72.974C77.1942 72.8495 76.9834 72.7592 76.8107 72.6708C76.638 72.5825 76.4713 72.5182 76.3388 72.47L76.0356 72.3536C75.9995 72.3402 75.9616 72.3321 75.9232 72.3295Z" fill="#E0E0E0"/>
<path d="M80.4089 75.3275C80.3683 75.1817 80.2817 75.0528 80.1619 74.9601C79.8865 74.7202 79.5353 74.5851 79.17 74.5786C78.8114 74.5755 78.4558 74.6437 78.1239 74.7794C77.9811 74.8222 77.8457 74.8865 77.7223 74.9701C77.8658 74.9429 78.0064 74.9019 78.142 74.8477C78.4696 74.7354 78.8136 74.6784 79.16 74.679C79.5041 74.6855 79.837 74.8023 80.1097 75.0123C80.2176 75.1094 80.3176 75.2148 80.4089 75.3275Z" fill="#E0E0E0"/>
<path d="M81.0795 76.0261C80.9459 75.7339 80.8514 75.4254 80.7984 75.1085C80.7785 74.7879 80.7994 74.4661 80.8606 74.1508C80.8005 74.2289 80.7606 74.3206 80.7442 74.4178C80.6845 74.647 80.6674 74.8852 80.694 75.1206C80.7216 75.356 80.7931 75.5841 80.9048 75.7932C80.9932 75.9519 81.0695 76.0342 81.0795 76.0261Z" fill="#E0E0E0"/>
<path d="M88.3843 85.3347C88.2297 88.0775 87.4025 90.8685 86.1315 93.6876H80.6037C79.3989 90.8946 78.6219 88.1097 78.4853 85.3347H88.3843Z" fill="#E0E0E0"/>
<path d="M79.3809 89.7841C79.3809 89.8123 81.2 89.8363 83.4449 89.8363C85.6897 89.8363 87.5109 89.8123 87.5109 89.7841C87.5109 89.756 85.6917 89.7319 83.4449 89.7319C81.198 89.7319 79.3809 89.744 79.3809 89.7841Z" fill="#FAFAFA"/>
<path d="M79.5033 90.7681C79.5033 90.7963 81.2101 90.8183 83.3184 90.8183C85.4267 90.8183 87.1334 90.7963 87.1334 90.7681C87.1334 90.74 85.4267 90.7159 83.3184 90.7159C81.2101 90.7159 79.5033 90.738 79.5033 90.7681Z" fill="#FAFAFA"/>
<path d="M86.0431 87.136C85.9735 87.9839 85.9735 88.8361 86.0431 89.684C86.1127 88.8361 86.1127 87.9839 86.0431 87.136Z" fill="#FAFAFA"/>
<path d="M83.0794 87.136C83.0125 88.0142 83.0125 88.8962 83.0794 89.7744C83.149 88.8963 83.149 88.0141 83.0794 87.136Z" fill="#FAFAFA"/>
<path d="M80.3005 87.1138C80.2309 88.0093 80.2309 88.9089 80.3005 89.8044C80.3674 88.9088 80.3674 88.0094 80.3005 87.1138Z" fill="#FAFAFA"/>
<path d="M78.66 87.1358C78.66 87.1639 80.7944 87.188 83.4288 87.188C86.0632 87.188 88.1956 87.1639 88.1956 87.1358C88.1956 87.1077 86.0611 87.0836 83.4288 87.0836C80.7964 87.0836 78.66 87.1077 78.66 87.1358Z" fill="#FAFAFA"/>
<path d="M9.1581 22.0012L11.5877 20.0334L9.1581 22.0012Z" fill="white"/>
<path d="M6.62611 93.6516C6.62611 93.6797 26.131 93.7038 50.1878 93.7038C74.2446 93.7038 93.7595 93.6797 93.7595 93.6516C93.7595 93.6235 74.2586 93.5994 50.1878 93.5994C26.1169 93.5994 6.62611 93.6215 6.62611 93.6516Z" fill="#263238"/>
<path d="M28.4642 88.0696C28.4642 88.0696 29.2673 82.5037 29.2051 79.2649C29.1428 76.0261 29.2051 72.3838 29.2051 72.3838H28.8316C28.8316 72.3838 29.0846 78.8091 28.8095 82.6884C28.5344 86.5677 27.8056 88.0696 27.8056 88.0696H28.4541" fill="#263238"/>
<path d="M26.0527 66.121C26.1102 65.9233 26.229 65.7489 26.392 65.6231C26.6289 65.4725 26.9382 65.5347 27.1952 65.6231C28.3216 66.0246 29.3215 68.1229 29.7773 69.2373L28.2794 74.2792C25.5868 71.7713 25.119 68.4843 26.0527 66.121Z" fill="#455A64"/>
<path d="M26.4784 65.8279C26.4836 65.85 26.491 65.8715 26.5005 65.8921L26.5748 66.0769C26.639 66.2355 26.7314 66.4664 26.8418 66.7515C27.0627 67.3258 27.3438 68.1249 27.5948 69.0265C27.8458 69.928 28.0164 70.7613 28.1229 71.3657C28.1751 71.6669 28.2152 71.9119 28.2413 72.0825C28.2534 72.1608 28.2654 72.2251 28.2734 72.2833C28.2757 72.3059 28.2804 72.3281 28.2875 72.3496C28.2875 72.3496 28.2875 72.3255 28.2875 72.2813C28.2875 72.2371 28.2755 72.1648 28.2674 72.0805C28.2494 71.9098 28.2152 71.6629 28.167 71.3597C28.0408 70.5682 27.8698 69.7846 27.655 69.0124C27.4403 68.2404 27.1829 67.4809 26.884 66.7375C26.7695 66.4543 26.6711 66.2254 26.5989 66.0688L26.5045 65.8901C26.4987 65.8683 26.49 65.8473 26.4784 65.8279Z" fill="#263238"/>
<path d="M28.9541 75.4861C29.635 75.0987 30.2047 74.5426 30.6084 73.8713C31.0121 73.2 31.2362 72.4361 31.2592 71.653C31.3134 70.5326 30.97 69.4343 30.5805 68.3841C30.5563 68.2893 30.5003 68.2057 30.4219 68.1472C30.3583 68.1244 30.2901 68.1179 30.2234 68.1284C30.1567 68.139 30.0938 68.1662 30.0404 68.2074C29.0203 68.7877 28.4039 69.8941 28.0746 71.0185C27.8391 71.7654 27.7605 72.5529 27.8437 73.3316C27.9723 74.15 28.3618 74.905 28.9541 75.4841" fill="#455A64"/>
<path d="M28.9541 75.486C28.9571 75.4633 28.9571 75.4403 28.9541 75.4177V75.2169C28.9541 75.0482 28.9541 74.8053 28.9762 74.5061C29.0151 73.7252 29.1016 72.9473 29.2352 72.1769C29.3918 71.2734 29.5806 70.4642 29.7191 69.8799C29.7874 69.5947 29.8436 69.3598 29.8858 69.1871C29.9039 69.1108 29.9179 69.0486 29.928 68.9984C29.9347 68.9769 29.9388 68.9546 29.94 68.9321C29.9299 68.9527 29.9218 68.9742 29.9159 68.9964L29.8617 69.1811C29.8155 69.3438 29.7533 69.5827 29.677 69.8698C29.5264 70.4521 29.3316 71.2613 29.175 72.1669C29.0406 72.9395 28.9594 73.7204 28.932 74.5041C28.932 74.8053 28.932 75.0482 28.932 75.2169C28.932 75.2952 28.932 75.3595 28.932 75.4177C28.9372 75.4411 28.9446 75.4639 28.9541 75.486Z" fill="#263238"/>
<g opacity="0.3">
<path d="M28.9541 75.4861C29.635 75.0987 30.2047 74.5426 30.6084 73.8713C31.0121 73.2 31.2362 72.4361 31.2592 71.653C31.3134 70.5326 30.97 69.4343 30.5805 68.3841C30.5563 68.2893 30.5003 68.2057 30.4219 68.1472C30.3583 68.1244 30.2901 68.1179 30.2234 68.1284C30.1567 68.139 30.0938 68.1662 30.0404 68.2074C29.0203 68.7877 28.4039 69.8941 28.0746 71.0185C27.8391 71.7654 27.7605 72.5529 27.8437 73.3316C27.9723 74.15 28.3618 74.905 28.9541 75.4841" fill="black"/>
</g>
<path d="M27.3719 84.0019C25.9904 84.3051 24.854 85.2789 23.5227 85.7528C22.6412 86.066 21.6453 86.1764 20.9405 86.7929C21.1092 86.3672 21.5108 86.0821 21.8983 85.8391C22.9957 85.1555 24.1662 84.5971 25.3881 84.1745C26.0145 83.9577 26.6932 83.773 27.3317 83.9557" fill="#455A64"/>
<path d="M29.3677 85.2324C31.0966 85.2043 32.9157 83.7325 34.6365 83.6442C32.8294 83.0619 30.2573 83.5378 29.3677 85.2324Z" fill="#455A64"/>
<path d="M28.6911 81.0841C27.8001 80.7925 26.8503 80.7283 25.9282 80.8974C25.0097 81.0653 24.1069 81.3105 23.2296 81.6303C23.3179 81.0279 23.8038 80.5781 24.2596 80.1806C24.5934 79.8686 24.9565 79.5895 25.3439 79.3473C25.7331 79.1035 26.1838 78.976 26.643 78.9798C26.9183 78.9979 27.1871 79.0712 27.4334 79.1954C27.6797 79.3196 27.8985 79.4921 28.0767 79.7027C28.426 80.0843 28.6416 80.5692 28.6911 81.0841Z" fill="#455A64"/>
<path d="M32.239 79.1767C33.3273 78.2471 34.9758 78.3374 36.4075 78.3736C34.1089 79.4699 31.9409 80.821 29.944 82.4014C29.8858 81.3854 30.8656 80.3473 32.239 79.1767Z" fill="#455A64"/>
<g opacity="0.3">
<path d="M32.239 79.1767C33.3273 78.2471 34.9758 78.3374 36.4075 78.3736C34.1089 79.4699 31.9409 80.821 29.944 82.4014C29.8858 81.3854 30.8656 80.3473 32.239 79.1767Z" fill="black"/>
</g>
<path d="M28.2012 77.8934C27.6705 77.5247 27.1112 77.199 26.5286 76.9196C25.9563 76.6606 25.4202 76.2449 24.868 75.9458C24.1512 75.5562 23.5288 75.0181 22.8601 74.5402C22.1915 74.0623 21.4787 73.6226 20.6735 73.4961C21.3366 73.3773 22.0183 73.4165 22.6633 73.6106C23.306 73.804 23.9324 74.0477 24.5367 74.3394C25.3861 74.7229 26.2495 75.1145 26.9462 75.7349C27.643 76.3554 28.2674 76.9678 28.1931 77.8974" fill="#455A64"/>
<path d="M23.5528 85.2322C23.5723 85.226 23.5912 85.218 23.609 85.2081L23.7596 85.1298C23.8902 85.0595 24.0769 84.9571 24.3118 84.8386C24.4283 84.7784 24.5568 84.7142 24.6973 84.6479C24.8379 84.5816 24.9865 84.5114 25.1471 84.4471C25.4905 84.2929 25.8465 84.1686 26.2113 84.0756C26.5727 83.9747 26.9536 83.965 27.3197 84.0475C27.4799 84.0812 27.6371 84.1282 27.7895 84.1881C27.9222 84.2427 28.0493 84.3099 28.169 84.3889C28.3443 84.5016 28.5043 84.6366 28.6449 84.7905C28.7453 84.8969 28.7955 84.9631 28.7995 84.9591C28.7905 84.9414 28.7797 84.9245 28.7674 84.9089C28.7356 84.8618 28.7007 84.8168 28.663 84.7744C28.5268 84.6143 28.3686 84.4744 28.1931 84.3588C28.0713 84.281 27.9429 84.2138 27.8096 84.158C27.6552 84.0959 27.496 84.0462 27.3337 84.0094C26.9587 83.9233 26.5683 83.9316 26.1972 84.0335C25.8285 84.1275 25.469 84.2545 25.123 84.413C24.9644 84.4832 24.8138 84.5535 24.6753 84.6238C24.5367 84.6941 24.4062 84.7583 24.2917 84.8246C24.0588 84.9491 23.8741 85.0575 23.7476 85.1338L23.603 85.2222C23.586 85.2236 23.5691 85.2269 23.5528 85.2322Z" fill="#263238"/>
<path d="M30.6568 84.3751C30.6193 84.3807 30.5828 84.3915 30.5484 84.4072C30.452 84.4415 30.358 84.4824 30.2673 84.5297C29.964 84.6823 29.6852 84.8792 29.44 85.114C29.1958 85.3502 28.9875 85.6208 28.8216 85.9172C28.7716 86.0067 28.7274 86.0992 28.6891 86.1943C28.6711 86.2275 28.6589 86.2635 28.6529 86.3007C28.663 86.3007 28.7272 86.1581 28.8537 85.9393C29.2021 85.3657 29.6942 84.893 30.2813 84.5679C30.5203 84.4434 30.6608 84.3852 30.6568 84.3751Z" fill="#263238"/>
<path d="M34.4819 79.0883L34.4076 79.1103L34.2068 79.1846L33.8796 79.3051C33.7511 79.3533 33.6125 79.4216 33.4559 79.4918C32.6449 79.8671 31.8879 80.3492 31.205 80.9255C30.8327 81.2462 30.4826 81.5917 30.1569 81.9596C29.8918 82.2605 29.6431 82.5755 29.412 82.9033C29.2112 83.1824 29.0646 83.4153 28.9622 83.5759L28.8437 83.7627C28.8286 83.7833 28.8158 83.8055 28.8056 83.8289C28.8238 83.8107 28.84 83.7905 28.8538 83.7687C28.8839 83.7285 28.928 83.6683 28.9823 83.59C29.0907 83.4334 29.2453 83.2045 29.4461 82.9274C29.6469 82.6503 29.9019 82.325 30.1991 81.9977C30.5257 81.634 30.8752 81.2913 31.2452 80.9717C31.9255 80.3997 32.675 79.9153 33.476 79.53C33.6306 79.4597 33.7671 79.3874 33.8936 79.3292L34.2149 79.1987L34.4157 79.1144C34.4385 79.1076 34.4607 79.0989 34.4819 79.0883Z" fill="#263238"/>
<path d="M26.1029 80.1124C26.1496 80.112 26.1961 80.1059 26.2414 80.0943L26.4 80.0662C26.4623 80.0542 26.5346 80.0542 26.6129 80.0461C26.9301 80.0161 27.2501 80.0575 27.5492 80.1673C27.8484 80.2771 28.1192 80.4525 28.3417 80.6806C28.4726 80.8109 28.5891 80.955 28.6891 81.1103C28.779 81.2556 28.8582 81.4073 28.926 81.5641C28.9213 81.5178 28.9098 81.4725 28.8919 81.4296C28.8483 81.3103 28.7924 81.1959 28.7252 81.0882C28.6294 80.9256 28.5141 80.7752 28.3819 80.6405C28.1564 80.4034 27.8787 80.2223 27.5709 80.1114C27.2631 80.0006 26.9337 79.9631 26.6089 80.0019C26.5367 80.0078 26.465 80.0178 26.394 80.0321L26.2354 80.0722C26.1899 80.0808 26.1455 80.0942 26.1029 80.1124Z" fill="#263238"/>
<path d="M24.36 74.7253C24.3803 74.7404 24.4018 74.7538 24.4243 74.7655L24.6251 74.8699C24.7917 74.9603 25.0266 75.0928 25.3258 75.2715C25.625 75.4502 25.9623 75.663 26.3298 75.9241C26.7294 76.2024 27.1036 76.5155 27.4482 76.8598C27.6268 77.0394 27.7807 77.2419 27.906 77.4621C28.0184 77.681 28.1268 77.8898 28.2272 78.0926C28.428 78.4942 28.5887 78.8677 28.7071 79.1849C28.8004 79.4369 28.8782 79.6944 28.9401 79.956C28.9842 80.1407 29.0003 80.2451 29.0063 80.2451C29.009 80.2191 29.009 80.1928 29.0063 80.1668C29.0063 80.1186 28.9903 80.0443 28.9702 79.9499C28.9161 79.6855 28.8436 79.4252 28.7533 79.1709C28.6183 78.7939 28.4614 78.4252 28.2835 78.0665C28.1851 77.8657 28.0827 77.6529 27.9662 77.436C27.8377 77.2154 27.6804 77.0128 27.4984 76.8336C27.1511 76.4873 26.7734 76.1728 26.3699 75.8939C26.0005 75.6329 25.6511 75.4221 25.3559 75.2514C25.0608 75.0807 24.8138 74.9542 24.6431 74.8699L24.4423 74.7755C24.4173 74.7551 24.3896 74.7383 24.36 74.7253Z" fill="#263238"/>
<path d="M29.2071 79.9576C29.2233 79.9099 29.2347 79.8608 29.2413 79.811L29.3176 79.4094C29.4012 78.971 29.5105 78.5379 29.6448 78.1123C29.784 77.6883 29.9489 77.2732 30.1388 76.8694C30.205 76.7208 30.2613 76.5963 30.3075 76.4979C30.3306 76.4539 30.3488 76.4074 30.3617 76.3594C30.3319 76.3995 30.3064 76.4426 30.2854 76.4879C30.2392 76.5722 30.1749 76.6887 30.0986 76.8493C29.8974 77.251 29.7263 77.6672 29.5866 78.0942C29.4495 78.5213 29.3454 78.9583 29.2754 79.4014C29.2473 79.572 29.2272 79.7106 29.2192 79.8029C29.2094 79.8539 29.2054 79.9057 29.2071 79.9576Z" fill="#263238"/>
<path d="M29.3336 76.0242C29.3869 75.369 29.5785 74.7326 29.8959 74.1569C30.3218 73.3642 30.9163 72.6746 31.6375 72.1366C32.3588 71.5985 33.1892 71.2251 34.0703 71.0426C32.7826 72.9635 31.4942 74.8844 30.2051 76.8053L29.7051 77.8334C29.3912 77.2855 29.261 76.6515 29.3336 76.0242Z" fill="#455A64"/>
<path d="M23.7878 87.381H32.7772V88.9753H23.7878V87.381Z" fill="#FF725E"/>
<path d="M32.1065 88.6578L31.3395 93.6013H25.372L24.4584 88.6578H32.1065Z" fill="#FF725E"/>
<path d="M23.7918 88.981C23.7918 88.9991 25.8198 89.0132 28.3196 89.0132C30.8195 89.0132 32.8495 88.9991 32.8495 88.981C32.8495 88.963 30.8215 88.9509 28.3196 88.9509C25.8177 88.9509 23.7918 88.959 23.7918 88.981Z" fill="#263238"/>
<path d="M73.9896 53.0395C73.9243 53.0574 73.8565 53.0649 73.7888 53.0616C73.6073 53.069 73.4254 53.0637 73.2447 53.0455C72.6475 52.9882 72.0639 52.8321 71.5179 52.5837C70.9762 52.3382 70.4799 52.0028 70.0501 51.5918C69.9208 51.4667 69.8007 51.3325 69.6907 51.1902C69.6469 51.1422 69.6104 51.0881 69.5822 51.0296C69.6003 51.0155 69.783 51.2304 70.1103 51.5235C70.5475 51.9097 71.0394 52.229 71.5701 52.4713C72.1056 52.7126 72.6729 52.8762 73.2547 52.9572C73.7065 53.0395 73.9896 53.0254 73.9896 53.0395Z" fill="#455A64"/>
<path d="M76.634 55.8868C75.7345 54.4311 70.546 45.9537 66.7953 39.8396C66.3799 39.0559 65.7954 38.3745 65.0842 37.8445C64.373 37.3146 63.5528 36.9494 62.6831 36.7755C59.6953 36.1731 47.8406 46.803 47.8406 46.803L55.3783 52.7806L61.8859 45.3794H62.2875C62.2875 45.3794 63.0164 47.9897 64.5685 49.7085C66.3997 51.7325 72.7829 57.3767 72.7829 57.3767L76.634 55.8868Z" fill="#FFBF9D"/>
<path d="M84.3564 60.4689C84.3564 60.4689 84.8845 59.6938 83.4388 59.3123C81.9931 58.9308 80.7803 58.6176 79.9611 58.1296C78.8778 57.4709 77.834 56.7495 76.8348 55.9691C76.1902 55.4451 75.6039 54.9531 75.6039 54.9531C75.6039 54.9531 72.4053 56.6779 72.4555 56.7241C72.682 57.004 72.8079 57.3519 72.8129 57.712C72.7828 58.1818 72.0319 59.989 72.6643 60.9588C72.833 61.2178 81.6538 60.9929 82.9449 60.8805C84.2359 60.768 84.3564 60.4689 84.3564 60.4689Z" fill="#FFBF9D"/>
<path d="M77.9794 56.313C77.0799 54.8572 71.8914 46.3798 68.1407 40.2657C67.7253 39.4821 67.1408 38.8006 66.4296 38.2707C65.7184 37.7407 64.8982 37.3756 64.0285 37.2017C61.0407 36.5993 49.186 47.2292 49.186 47.2292L56.7237 53.2067L63.2313 45.8056H63.6329C63.6329 45.8056 64.3618 48.4159 65.9139 50.1346C67.7451 52.1586 74.1283 57.8029 74.1283 57.8029L77.9794 56.313Z" fill="#FFBF9D"/>
<path d="M85.7018 60.8951C85.7018 60.8951 86.2299 60.1201 84.7842 59.7386C83.3385 59.3571 82.1258 59.0438 81.3065 58.5559C80.2233 57.8972 79.1794 57.1758 78.1802 56.3954C77.5357 55.8713 76.9494 55.3794 76.9494 55.3794C76.9494 55.3794 73.7508 57.1042 73.801 57.1504C74.0274 57.4303 74.1533 57.7782 74.1584 58.1383C74.1282 58.6081 73.3773 60.4152 74.0098 61.3851C74.1784 61.6441 82.9992 61.4192 84.2903 61.3067C85.5814 61.1943 85.7018 60.8951 85.7018 60.8951Z" fill="#FFBF9D"/>
<path d="M8.85488 45.3572C8.37131 45.4313 7.90762 45.602 7.49151 45.8592C7.28501 45.9902 7.10921 46.1642 6.97614 46.3693C6.84307 46.5745 6.75586 46.806 6.72047 47.0479C6.6932 47.291 6.74638 47.5363 6.87186 47.7463C6.99734 47.9563 7.1882 48.1194 7.41521 48.2105L7.44935 48.584C8.00554 48.0077 8.84083 47.8009 9.63596 47.7005C10.4311 47.6001 11.1198 47.7688 11.8547 47.4475C11.4531 46.9616 11.0515 46.3933 10.4612 46.2066C10.8735 46.0985 11.311 46.1442 11.6921 46.3351C11.5813 46.0843 11.4134 45.8628 11.2018 45.6885C10.9902 45.5142 10.7407 45.3918 10.4733 45.3311C9.93849 45.2203 9.38581 45.2292 8.85488 45.3572Z" fill="#263238"/>
<path d="M6.95943 47.6182C5.26475 47.5379 4.50375 49.5378 4.19253 50.863C3.8813 52.1882 4.22867 53.6038 4.90935 54.7664C5.59004 55.9289 6.58194 56.8546 7.63007 57.6959C7.75456 57.3887 7.88106 57.0835 8.00756 56.7763C7.96129 56.91 7.96106 57.0554 8.0069 57.1893C8.05274 57.3232 8.14203 57.4379 8.26056 57.5152C8.50012 57.6601 8.77203 57.7429 9.05167 57.7561C9.71212 57.8481 10.3789 57.887 11.0455 57.8726C12.7904 57.8144 14.475 57.216 16.1255 56.6237C14.9349 56.0434 13.5755 55.937 12.2503 55.8828C11.7804 55.8627 11.2805 55.8406 10.899 55.5635C10.5674 55.2872 10.3429 54.9036 10.2645 54.4792C10.162 54.0616 10.1299 53.6279 10.0235 53.2102C9.90481 52.7475 9.69411 52.3135 9.40398 51.934C9.11385 51.5545 8.75024 51.2374 8.33485 51.0015L6.95943 47.6182Z" fill="#263238"/>
<path d="M9.5496 55.8025L19.2639 57.7762C20.9164 58.1116 23.4122 58.2682 23.8239 55.6318C24.0086 53.3167 21.9766 52.3067 20.4345 51.9955C19.7036 51.8469 19.0932 51.7224 19.029 51.7023C19.029 51.7023 19.298 49.1824 16.8865 48.5057C15.7219 48.1804 13.2723 47.7025 11.0415 47.301C9.88822 47.0913 8.69829 47.3234 7.70831 47.951C6.71833 48.5786 6.00081 49.5558 5.69843 50.6883L5.63618 50.9212C5.10208 53.4733 6.97948 55.3487 9.5496 55.8025Z" fill="#FFBF9D"/>
<path d="M19.019 51.7023C18.7181 52.8193 18.1027 53.8264 17.246 54.6037C17.246 54.6037 19.2198 54.3085 19.6454 51.8348L19.019 51.7023Z" fill="#FF9A6C"/>
<path d="M11.2443 51.678C11.2845 51.7362 11.0034 51.9772 10.913 52.3848C10.8227 52.7924 10.9672 53.1378 10.913 53.1719C10.8849 53.188 10.8046 53.1197 10.7343 52.9711C10.6479 52.7676 10.6283 52.542 10.6781 52.3266C10.7253 52.1134 10.8401 51.9211 11.0054 51.7784C11.1198 51.672 11.2202 51.6499 11.2443 51.678Z" fill="#263238"/>
<path d="M12.3704 51.7765C12.4557 51.7985 12.5292 51.8526 12.5753 51.9277C12.6214 52.0027 12.6367 52.0927 12.6177 52.1787C12.6096 52.2211 12.5931 52.2614 12.5692 52.2974C12.5453 52.3334 12.5145 52.3642 12.4786 52.3882C12.4426 52.4121 12.4023 52.4287 12.3599 52.4369C12.3175 52.4451 12.2739 52.4448 12.2317 52.4361C12.1465 52.4142 12.0732 52.3599 12.0273 52.2848C11.9815 52.2097 11.9668 52.1197 11.9864 52.0339C11.9943 51.9916 12.0106 51.9513 12.0343 51.9154C12.0579 51.8794 12.0886 51.8485 12.1243 51.8246C12.1601 51.8006 12.2003 51.784 12.2425 51.7758C12.2848 51.7675 12.3283 51.7678 12.3704 51.7765Z" fill="#263238"/>
<path d="M14.2903 51.1944C14.2808 50.9815 14.2984 50.7683 14.3425 50.5599C14.3586 50.4635 14.3626 50.3591 14.3024 50.335C14.2068 50.3012 14.1032 50.297 14.0052 50.3229L13.202 50.4113C12.0696 50.5257 11.1479 50.5819 11.1439 50.5358C11.1399 50.4896 12.0535 50.3611 13.188 50.2446L13.9911 50.1703C14.1216 50.1419 14.2579 50.1596 14.3767 50.2205C14.4075 50.244 14.4322 50.2744 14.449 50.3093C14.4658 50.3442 14.474 50.3826 14.473 50.4213C14.4744 50.4782 14.4676 50.535 14.453 50.59C14.4244 50.7975 14.3698 51.0005 14.2903 51.1944Z" fill="#263238"/>
<path d="M9.66004 51.5597C9.74437 51.616 9.61186 51.9332 9.55764 52.3308C9.50343 52.7284 9.52953 53.0677 9.43315 53.0958C9.38697 53.1078 9.31468 53.0315 9.25846 52.883C9.19214 52.6894 9.17422 52.4826 9.20626 52.2806C9.23488 52.0769 9.31277 51.8832 9.43315 51.7164C9.52953 51.5859 9.61988 51.5336 9.66004 51.5597Z" fill="#263238"/>
<path d="M11.164 47.8027C11.2303 47.8609 11.0857 48.1661 10.9994 48.5517C10.913 48.9372 10.903 49.2705 10.8166 49.2966C10.7765 49.2966 10.7223 49.2303 10.6901 49.0838C10.6496 48.8845 10.6544 48.6786 10.7042 48.4814C10.7479 48.2845 10.8328 48.0991 10.9532 47.9372C11.0435 47.8188 11.1319 47.7786 11.164 47.8027Z" fill="#263238"/>
<path d="M11.3929 56.0834C11.3648 56.1195 10.4572 57.6134 12.1258 58.0029C13.7944 58.3925 13.8406 56.6376 13.7944 56.6235C13.7482 56.6094 11.3929 56.0834 11.3929 56.0834Z" fill="#FFBF9D"/>
<path d="M13.0515 56.9851C13.0515 56.9851 13.0635 57.0192 13.0756 57.0734C13.0882 57.1496 13.0717 57.2277 13.0294 57.2923C12.923 57.4529 12.6097 57.5352 12.3065 57.473C12.1613 57.4444 12.0242 57.3841 11.905 57.2963C11.8565 57.2685 11.8156 57.2293 11.7859 57.182C11.7561 57.1348 11.7384 57.0809 11.7343 57.0252C11.7326 56.9898 11.7436 56.955 11.7653 56.927C11.7871 56.8991 11.8181 56.8798 11.8528 56.8726C11.905 56.8606 11.9351 56.8726 11.9411 56.8726C11.9471 56.8726 11.921 56.8305 11.8487 56.8284C11.8051 56.8272 11.7624 56.8414 11.7283 56.8686C11.6835 56.9066 11.6554 56.9607 11.65 57.0192C11.6474 57.091 11.6632 57.1622 11.6959 57.2262C11.7286 57.2901 11.777 57.3447 11.8367 57.3846C11.966 57.4855 12.1174 57.5543 12.2784 57.5854C12.6178 57.6517 12.9712 57.5533 13.0977 57.3284C13.1213 57.2869 13.1352 57.2406 13.1384 57.193C13.1415 57.1453 13.1338 57.0976 13.1157 57.0533C13.0816 56.9971 13.0515 56.979 13.0515 56.9851Z" fill="#FF9A6C"/>
<path d="M12.1057 47.9635C12.1459 48.0218 11.8628 48.2607 11.7744 48.6703C11.6861 49.0799 11.8287 49.4233 11.7744 49.4574C11.7483 49.4735 11.666 49.4052 11.5977 49.2566C11.5114 49.0531 11.4917 48.8275 11.5415 48.6121C11.5889 48.3994 11.7028 48.2074 11.8668 48.0639C11.9853 47.9575 12.0877 47.9354 12.1057 47.9635Z" fill="#263238"/>
<path d="M13.1254 48.5719C13.2107 48.5938 13.2841 48.648 13.3303 48.723C13.3764 48.798 13.3916 48.888 13.3727 48.974C13.3645 49.0165 13.348 49.0569 13.3242 49.0929C13.3003 49.129 13.2695 49.16 13.2337 49.1841C13.1978 49.2082 13.1575 49.225 13.1151 49.2334C13.0727 49.2419 13.029 49.2419 12.9866 49.2334C12.9014 49.2115 12.8281 49.1573 12.7823 49.0822C12.7365 49.0071 12.7218 48.917 12.7413 48.8313C12.749 48.7888 12.7651 48.7482 12.7887 48.7121C12.8123 48.6759 12.8429 48.6448 12.8787 48.6206C12.9145 48.5965 12.9547 48.5797 12.9971 48.5713C13.0395 48.563 13.0831 48.5631 13.1254 48.5719Z" fill="#263238"/>
<path d="M7.82083 47.7908C6.88514 47.2506 6.19643 47.9534 5.38322 48.6622C4.98132 49.0258 4.6989 49.5026 4.5731 50.0298C4.44731 50.557 4.48403 51.1099 4.67844 51.6158C4.89128 52.1399 5.26677 52.5796 5.55591 53.0655C5.84504 53.5515 6.04985 54.1418 5.87315 54.6719C6.22562 54.459 6.50479 54.1438 6.67341 53.7681C6.84203 53.3925 6.89208 52.9744 6.81687 52.5696C7.38773 53.3835 7.70745 54.3468 7.7365 55.3405C8.04765 55.044 8.24513 54.6479 8.29465 54.2209C8.34416 53.794 8.24259 53.3632 8.00756 53.0033C8.73148 53.4318 9.33896 54.0317 9.77654 54.7502C9.85083 54.8707 9.94721 55.0112 10.0898 55.0072C10.2323 55.0032 10.3207 54.8466 10.3649 54.708C10.4901 54.3046 10.5053 53.8751 10.409 53.4638C10.3126 53.0526 10.1081 52.6746 9.8167 52.3688C9.1822 51.7223 8.46135 51.2163 7.79473 50.6018C7.47748 50.3107 6.99156 49.5216 7.11605 49.0236C7.21444 48.61 7.56381 47.8671 7.97945 47.7747" fill="#263238"/>
<path d="M5.92741 51.2826C5.86073 51.3098 5.80062 51.3509 5.75111 51.4032C5.70159 51.4555 5.66381 51.5178 5.64028 51.5858C5.23869 52.4532 5.5439 53.5214 6.16434 54.2483C6.78479 54.9752 7.66626 55.4249 8.54774 55.7944C9.26456 56.0956 10.0235 56.3626 10.7986 56.3084L11.5074 56.0253C11.7082 55.937 11.9532 55.9992 12.18 56.0032C12.4069 56.0072 12.68 55.9048 12.7081 55.6799C12.7071 55.5964 12.6831 55.5148 12.6389 55.444C12.5946 55.3732 12.5318 55.3159 12.4571 55.2784C12.0295 55.0093 11.4532 55.0615 11.0355 54.7784C10.7564 54.5876 10.5918 54.2744 10.379 54.0114C10.0035 53.5455 9.47539 53.2323 8.95936 52.9291L6.34907 51.4011C6.29017 51.3543 6.22256 51.3198 6.15016 51.2994C6.07776 51.2791 6.00204 51.2734 5.92741 51.2826Z" fill="#263238"/>
<path d="M7.82083 47.7908C6.88514 47.2506 6.19643 47.9534 5.38322 48.6622C4.98132 49.0258 4.6989 49.5026 4.5731 50.0298C4.44731 50.557 4.48403 51.1099 4.67844 51.6158C4.89128 52.1399 5.26677 52.5796 5.55591 53.0655C5.84504 53.5515 6.04985 54.1418 5.87315 54.6719C6.22562 54.459 6.50479 54.1438 6.67341 53.7681C6.84203 53.3925 6.89208 52.9744 6.81687 52.5696C7.38773 53.3835 7.70745 54.3468 7.7365 55.3405C8.04765 55.044 8.24513 54.6479 8.29465 54.2209C8.34416 53.794 8.24259 53.3632 8.00756 53.0033C8.73148 53.4318 9.33896 54.0317 9.77654 54.7502C9.85083 54.8707 9.94721 55.0112 10.0898 55.0072C10.2323 55.0032 10.3207 54.8466 10.3649 54.708C10.4901 54.3046 10.5053 53.8751 10.409 53.4638C10.3126 53.0526 10.1081 52.6746 9.8167 52.3688C9.1822 51.7223 8.46135 51.2163 7.79473 50.6018C7.47748 50.3107 6.99156 49.5216 7.11605 49.0236C7.21444 48.61 7.56381 47.8671 7.97945 47.7747" fill="#263238"/>
<path d="M6.18038 52.9351C6.18038 52.9351 6.18038 52.8468 6.15629 52.6922C6.1228 52.4747 6.05503 52.2639 5.95549 52.0677C5.83904 51.8127 5.65431 51.5356 5.4736 51.2043C5.37792 51.03 5.30053 50.8464 5.24268 50.6562C5.18306 50.4475 5.16464 50.2293 5.18847 50.0136C5.24655 49.5993 5.42613 49.2115 5.7045 48.8992C5.92912 48.6502 6.19214 48.4387 6.48358 48.2728C6.67698 48.1605 6.8783 48.0626 7.08595 47.9796C7.16 47.9434 7.23823 47.9164 7.31887 47.8993C7.32891 47.9194 6.99961 48.0459 6.5157 48.337C6.23743 48.5074 5.98631 48.7185 5.77076 48.9635C5.51038 49.2632 5.34293 49.6323 5.28887 50.0257C5.25717 50.4215 5.34983 50.8174 5.55391 51.1581C5.72458 51.4854 5.9053 51.7726 6.01774 52.0356C6.11265 52.2415 6.17108 52.4623 6.19042 52.6882C6.20378 52.7703 6.20037 52.8543 6.18038 52.9351Z" fill="#455A64"/>
<path d="M7.93127 52.0798C7.91722 52.0798 7.76462 51.8629 7.45741 51.5437C7.30682 51.383 7.11807 51.1943 6.93133 50.9654C6.71748 50.7183 6.55807 50.4289 6.46349 50.1161C6.37741 49.799 6.37327 49.4653 6.45144 49.1462C6.51661 48.8872 6.63718 48.6454 6.80484 48.4374C6.91651 48.298 7.0485 48.1762 7.19638 48.076C7.24759 48.0355 7.30627 48.0055 7.36906 47.9877C7.18185 48.1323 7.01265 48.2988 6.86507 48.4836C6.69638 48.711 6.58191 48.974 6.53041 49.2524C6.4789 49.5308 6.49172 49.8173 6.5679 50.09C6.65786 50.3886 6.80745 50.666 7.00763 50.9052C7.18634 51.1341 7.36906 51.3268 7.51363 51.4955C7.62957 51.628 7.73816 51.7667 7.83891 51.9111C7.87926 51.9616 7.91051 52.0186 7.93127 52.0798Z" fill="#455A64"/>
<path d="M9.26654 46.4135C9.1346 46.4477 9.0004 46.4725 8.86496 46.4878C8.55182 46.5447 8.25297 46.6627 7.98549 46.8352C7.72213 47.0113 7.51674 47.2614 7.39516 47.554C7.30481 47.7789 7.3028 47.9355 7.28473 47.9355C7.25852 47.8008 7.27176 47.6613 7.32288 47.5339C7.4314 47.2139 7.64333 46.9391 7.92526 46.7529C8.2039 46.5702 8.52175 46.456 8.85291 46.4195C8.98916 46.3913 9.12953 46.3893 9.26654 46.4135Z" fill="#455A64"/>
<path d="M10.3026 53.9609C10.3044 53.9857 10.3044 54.0105 10.3026 54.0352C10.2965 54.1075 10.2858 54.1792 10.2705 54.2501C10.2135 54.5222 10.1029 54.7802 9.94518 55.0091C9.84052 55.1819 9.68865 55.3212 9.50745 55.4107C9.45134 55.4365 9.38913 55.4463 9.32779 55.4388C9.26645 55.4314 9.20839 55.407 9.16008 55.3685C9.06683 55.2766 9.01284 55.152 9.00949 55.0211C8.99543 54.8946 9.00949 54.7641 8.99343 54.6336C8.98693 54.4982 8.96743 54.3637 8.9352 54.232C8.86807 53.9494 8.74891 53.6819 8.58381 53.4429L8.66413 53.4068C8.72744 53.691 8.69987 53.9879 8.5853 54.2556C8.47072 54.5233 8.27494 54.7482 8.02561 54.8986L7.96538 54.9328L7.95132 54.8645C7.85367 54.3683 7.63581 53.9036 7.31682 53.5112L7.40918 53.473C7.44025 53.8071 7.3823 54.1434 7.24123 54.4477C7.10016 54.7521 6.88099 55.0137 6.60602 55.2059L6.54176 55.25L6.46747 55.3002V55.2099C6.43102 54.9069 6.3169 54.6185 6.13617 54.3726C5.95963 54.1287 5.76498 53.8985 5.55387 53.6839C5.34632 53.4726 5.1594 53.242 4.99567 52.9951C4.84195 52.757 4.71534 52.5024 4.61819 52.2362C4.45015 51.7735 4.37688 51.2818 4.40276 50.7902C4.42863 50.2987 4.5531 49.8173 4.76878 49.3749C5.06221 48.7807 5.5094 48.276 6.06389 47.9131C6.26181 47.7757 6.47811 47.6669 6.70641 47.5898C6.49254 47.6951 6.28594 47.8145 6.08798 47.9473C5.55146 48.3171 5.12036 48.8202 4.83705 49.407C4.64274 49.8104 4.52754 50.2473 4.49771 50.6941C4.46329 51.2069 4.53647 51.7212 4.71256 52.204C4.90959 52.7377 5.22226 53.2211 5.62817 53.6196C5.84665 53.8367 6.04804 54.0703 6.23054 54.3184C6.42202 54.5789 6.54242 54.8847 6.57991 55.2059L6.4996 55.1657L6.55984 55.1235C6.81756 54.9409 7.02289 54.6938 7.15536 54.407C7.28783 54.1202 7.3428 53.8037 7.31481 53.4891L7.29674 53.3124L7.40918 53.4509C7.73784 53.8591 7.96123 54.3418 8.05975 54.8565L7.98746 54.8244C8.2194 54.6852 8.40211 54.4771 8.51009 54.229C8.61808 53.981 8.64595 53.7055 8.58984 53.4409L8.5296 53.1999L8.67015 53.4007C8.83884 53.6494 8.96002 53.9272 9.02756 54.22C9.05621 54.3523 9.075 54.4865 9.08378 54.6216C9.08378 54.7581 9.08378 54.8866 9.08378 55.0071C9.08463 55.1194 9.12846 55.2272 9.20627 55.3083C9.24512 55.3406 9.29228 55.3613 9.34234 55.368C9.39241 55.3748 9.44337 55.3673 9.48938 55.3464C9.6607 55.2596 9.80509 55.1277 9.90703 54.9649C10.0612 54.747 10.1742 54.5027 10.2403 54.2441C10.2885 54.0613 10.2946 53.9589 10.3026 53.9609Z" fill="#455A64"/>
<path d="M14.5353 52.236C14.5353 52.1737 14.9489 52.1757 15.2461 51.8223C15.5433 51.4689 15.5031 51.0192 15.5613 51.0192C15.5874 51.0192 15.6397 51.1176 15.6437 51.3063C15.6465 51.5502 15.5625 51.7872 15.4067 51.9749C15.2549 52.1557 15.0391 52.2708 14.8044 52.2962C14.6357 52.3143 14.5333 52.2661 14.5353 52.236Z" fill="#263238"/>
<path d="M41.5899 51.5054L47.8405 46.6864L55.7437 52.9692C55.7437 52.9692 47.5815 53.0475 47.4349 52.9692C47.2884 52.8908 41.5899 51.5054 41.5899 51.5054Z" fill="#263238"/>
<path d="M49.2943 47.3169C49.2943 47.3169 46.8848 51.2926 44.5897 51.2805L43.3167 60.3161L48.8811 59.7374C50.5648 59.5623 52.1177 58.7494 53.221 57.4655L57.0247 53.0394L49.2943 47.3169Z" fill="#263238"/>
<path d="M20.0571 52.5717C20.0571 52.5717 24.4966 50.5256 27.4361 50.3971C29.4963 50.3067 42.108 50.9633 42.108 50.9633C42.108 50.9633 43.9392 50.6521 44.6901 50.9432C45.0776 51.1092 45.4904 51.2083 45.9109 51.2364L44.9251 60.4909L23.7737 60.2198L20.6494 60.0752C20.0109 60.0632 18.3644 59.7821 18.007 59.2239C17.5927 58.5841 17.3448 57.851 17.2859 57.0911C17.227 56.3312 17.3589 55.5687 17.6697 54.8727C18.1355 53.8527 18.9266 53.1801 20.0571 52.5717Z" fill="#FF725E"/>
<path d="M32.75 47.5196C30.5496 50.3669 27.1355 55.421 27.1355 55.421C27.1355 55.421 26.2019 58.267 25.7001 58.8027C25.1984 59.3384 24.1439 60.181 22.2195 59.2091C21.4945 58.8253 20.9234 58.2041 20.6015 57.4496C20.3759 56.9401 20.285 56.3812 20.3377 55.8265C20.3903 55.2719 20.5848 54.74 20.9023 54.2822C21.626 53.2786 22.4416 52.3446 23.3385 51.4922L28.9302 45.4696C28.9302 45.4696 32.2908 38.4441 35.6677 34.8802L36.5927 35.2056L38.2846 36.1824L32.75 47.5196Z" fill="#FFBF9D"/>
<path d="M24.8659 49.4248L28.8581 55.4209C28.8581 55.4209 25.9355 58.7763 25.8348 58.8503C25.7341 58.9244 24.4622 60.3764 23.7254 60.3313C22.9887 60.2862 20.8965 60.4925 20.0103 58.6501C19.1242 56.8076 19.3063 55.5124 20.5266 54.005C21.747 52.4977 24.8659 49.4248 24.8659 49.4248Z" fill="#FF725E"/>
<path d="M35.6646 34.8855C35.6646 34.8855 35.8796 32.5775 36.1879 32.0877C36.7063 31.3925 37.3009 30.7575 37.9603 30.1943C38.084 30.0965 38.4344 29.8351 38.4344 29.8351C38.4344 29.8351 38.9175 28.906 39.1919 28.7399C39.4664 28.5737 39.629 28.7859 39.6757 29.0424C39.6757 29.0424 40.0688 28.743 40.3163 29.2661L40.338 29.4294C40.338 29.4294 40.7132 29.5023 40.6831 30.1688L40.7261 30.5321C40.8416 30.7024 40.9262 30.8917 40.9759 31.0914C41.0163 31.3466 40.4407 33.3073 40.307 33.8561C40.1733 34.405 39.4175 35.3968 39.0003 35.7982C38.5831 36.1995 38.085 36.6608 38.085 36.6608L35.3306 35.6085L35.6646 34.8855Z" fill="#FFBF9D"/>
<path d="M36.6048 32.2005C36.7275 32.1154 36.8378 32.0136 36.9324 31.8981C37.1773 31.6354 37.4088 31.3604 37.626 31.0743C37.879 30.7405 38.0954 30.4179 38.2376 30.1917C38.3255 30.0711 38.3975 29.9397 38.4518 29.8006C38.4257 29.7856 38.0449 30.3447 37.5416 31.0117C37.2895 31.3438 37.0506 31.6371 36.8778 31.8481C36.7752 31.9561 36.6838 32.0742 36.6048 32.2005Z" fill="#FF9A6C"/>
<path d="M38.8189 31.5824C39.0376 31.1786 39.2127 30.7528 39.3413 30.312C39.5031 29.8824 39.6182 29.4366 39.6847 28.9824C39.6604 28.9683 39.4827 29.5613 39.2426 30.2782C39.0026 30.9952 38.7908 31.5708 38.8189 31.5824Z" fill="#FF9A6C"/>
<path d="M39.6993 32.2623C39.7783 32.1377 39.8386 32.0022 39.8781 31.8601C39.9968 31.526 40.0913 31.1838 40.1609 30.8362C40.233 30.4902 40.2805 30.1396 40.303 29.7869C40.3208 29.64 40.3176 29.4914 40.2935 29.3455C40.2622 29.3436 40.2341 30.0067 40.0666 30.8189C39.8991 31.631 39.6702 32.2524 39.6993 32.2623Z" fill="#FF9A6C"/>
<path d="M39.9722 33.2591C40.0618 33.1471 40.1339 33.0222 40.1861 32.8887C40.3259 32.5723 40.4377 32.2443 40.5202 31.9084C40.6005 31.5711 40.6501 31.2272 40.6682 30.881C40.6855 30.7383 40.6805 30.5939 40.6534 30.4528C40.622 30.4509 40.6062 31.1048 40.4182 31.8843C40.2301 32.6637 39.9459 33.2485 39.9722 33.2591Z" fill="#FF9A6C"/>
<path d="M7.67023 57.1656H16.2139C16.6454 57.1662 17.0591 57.338 17.3641 57.6433C17.669 57.9486 17.8403 58.3625 17.8403 58.7941C17.8403 59.2256 17.669 59.6395 17.3641 59.9448C17.0591 60.2502 16.6454 60.422 16.2139 60.4225H7.67023C7.23834 60.4225 6.82415 60.2509 6.51876 59.9455C6.21337 59.6401 6.04181 59.226 6.04181 58.7941C6.04181 58.3622 6.21337 57.948 6.51876 57.6426C6.82415 57.3372 7.23834 57.1656 7.67023 57.1656Z" fill="#455A64"/>
<path d="M47.2321 62.9665C47.2462 62.9926 39.3009 67.6168 29.4882 73.2952C19.6755 78.9736 11.7041 83.5557 11.6881 83.5356C11.672 83.5155 19.6173 78.8873 29.434 73.2069C39.2507 67.5265 47.2181 62.9424 47.2321 62.9665Z" fill="#263238"/>
<path d="M11.3307 63.7919C11.3447 63.7658 19.4949 68.3358 29.5304 73.9961C39.5659 79.6564 47.696 84.2686 47.6819 84.2947C47.6679 84.3208 39.5198 79.7507 29.4802 74.0884C19.4406 68.4261 11.3166 63.816 11.3307 63.7919Z" fill="#263238"/>
<path d="M12.0555 93.6493H10.1681L10.1681 63.3358H12.0555L12.0555 93.6493Z" fill="#6F4439"/>
<path d="M82.457 62.9665C82.473 62.9926 74.5277 67.6169 64.7131 73.2952C54.8984 78.9736 46.929 83.5557 46.9149 83.5356C46.9009 83.5155 54.8442 78.8832 64.6548 73.2029C74.4655 67.5225 82.4429 62.9424 82.457 62.9665Z" fill="#263238"/>
<path d="M46.5555 63.7919C46.5695 63.7658 54.7196 68.3358 64.7572 73.9961C74.7947 79.6564 82.9268 84.2686 82.9087 84.2947C82.8907 84.3208 74.7466 79.7507 64.705 74.0884C54.6634 68.4261 46.5414 63.816 46.5555 63.7919Z" fill="#263238"/>
<path d="M48.1759 93.6053H46.2884L46.2884 61.0752H48.1759L48.1759 93.6053Z" fill="#6F4439"/>
<path d="M83.4669 93.6516H81.5795V63.5108H83.4669V93.6516Z" fill="#6F4439"/>
<path d="M7.7064 63.9103H84.1316C84.6808 63.9103 85.2076 63.6922 85.5961 63.3041C85.9847 62.9159 86.2032 62.3893 86.2037 61.8401C86.2037 61.2905 85.9854 60.7635 85.5968 60.3749C85.2082 59.9863 84.6811 59.7679 84.1316 59.7679H7.7064C7.43437 59.7679 7.16502 59.8216 6.91372 59.9257C6.66243 60.0299 6.43413 60.1825 6.24187 60.375C6.04961 60.5674 5.89716 60.7959 5.79325 61.0473C5.68933 61.2987 5.63598 61.5681 5.63625 61.8401C5.63625 62.3891 5.85435 62.9157 6.24258 63.3039C6.63081 63.6922 7.15736 63.9103 7.7064 63.9103Z" fill="#455A64"/>
</g>
<defs>
<clipPath id="clip0_3215_41027">
<rect width="100" height="100" rx="8" fill="white"/>
</clipPath>
</defs>
</svg>
